<?xml version="1.0" encoding="UTF-8" standalone="no"?><svg xmlns="http://www.w3.org/2000/svg" xmlns:xlink="http://www.w3.org/1999/xlink" contentScriptType="application/ecmascript" contentStyleType="text/css" height="356px" preserveAspectRatio="none" style="width:310px;height:356px;background:#FFFFFF;" version="1.1" viewBox="0 0 310 356" width="310px" zoomAndPan="magnify"><defs><filter height="300%" id="fcw48kp9oh5nu" width="300%" x="-1" y="-1"><feGaussianBlur result="blurOut" stdDeviation="2.0"/><feColorMatrix in="blurOut" result="blurOut2" type="matrix" values="0 0 0 0 0 0 0 0 0 0 0 0 0 0 0 0 0 0 .4 0"/><feOffset dx="4.0" dy="4.0" in="blurOut2" result="blurOut3"/><feBlend in="SourceGraphic" in2="blurOut3" mode="normal"/></filter></defs><g><text fill="#000000" font-family="sans-serif" font-size="18" lengthAdjust="spacing" textLength="186" x="55.5" y="16.708">1-1-1 UML Attributes</text><!--MD5=[3f0ef310aaa84a542276992c5216544d]
class Car--><rect codeLine="29" fill="#FEFECE" filter="url(#fcw48kp9oh5nu)" height="86.4141" id="Car" style="stroke:#A80036;stroke-width:1.5;" width="142" x="9" y="135.9531"/><ellipse cx="65.25" cy="151.9531" fill="#ADD1B2" rx="11" ry="11" style="stroke:#A80036;stroke-width:1.0;"/><path d="M68.2188,157.5938 Q67.6406,157.8906 67,158.0313 Q66.3594,158.1875 65.6563,158.1875 Q63.1563,158.1875 61.8281,156.5469 Q60.5156,154.8906 60.5156,151.7656 Q60.5156,148.6406 61.8281,146.9844 Q63.1563,145.3281 65.6563,145.3281 Q66.3594,145.3281 67,145.4844 Q67.6563,145.6406 68.2188,145.9375 L68.2188,148.6563 Q67.5938,148.0781 67,147.8125 Q66.4063,147.5313 65.7813,147.5313 Q64.4375,147.5313 63.75,148.6094 Q63.0625,149.6719 63.0625,151.7656 Q63.0625,153.8594 63.75,154.9375 Q64.4375,156 65.7813,156 Q66.4063,156 67,155.7344 Q67.5938,155.4531 68.2188,154.875 L68.2188,157.5938 Z " fill="#000000"/><text fill="#000000" font-family="sans-serif" font-size="12" lengthAdjust="spacing" textLength="21" x="85.75" y="156.1074">Car</text><line style="stroke:#A80036;stroke-width:1.5;" x1="10" x2="150" y1="167.9531" y2="167.9531"/><ellipse cx="20" cy="178.9531" rx="3" ry="3" style="stroke:#038048;stroke-width:1.0;fill:none;"/><text fill="#000000" font-family="sans-serif" font-size="11" lengthAdjust="spacing" textLength="70" x="29" y="182.1636">color: String</text><polygon fill="none" points="20,186.7578,24,190.7578,20,194.7578,16,190.7578" style="stroke:#B38D22;stroke-width:1.0;"/><text fill="#000000" font-family="sans-serif" font-size="11" lengthAdjust="spacing" textLength="116" x="29" y="194.9683">license_plate: String</text><rect fill="none" height="6" style="stroke:#C82930;stroke-width:1.0;" width="6" x="17" y="201.5625"/><text fill="#000000" font-family="sans-serif" font-size="11" lengthAdjust="spacing" textLength="101" x="29" y="207.7729">: Wheels[4]: Array</text><line style="stroke:#A80036;stroke-width:1.5;" x1="10" x2="150" y1="214.3672" y2="214.3672"/><!--MD5=[02e4b9b7573f1156f41e60aa5b4e25a4]
class Company--><rect codeLine="35" fill="#FEFECE" filter="url(#fcw48kp9oh5nu)" height="60.8047" id="Company" style="stroke:#A80036;stroke-width:1.5;" width="100" x="30" y="281.9531"/><ellipse cx="49.95" cy="297.9531" fill="#ADD1B2" rx="11" ry="11" style="stroke:#A80036;stroke-width:1.0;"/><path d="M52.9188,303.5938 Q52.3406,303.8906 51.7,304.0313 Q51.0594,304.1875 50.3563,304.1875 Q47.8563,304.1875 46.5281,302.5469 Q45.2156,300.8906 45.2156,297.7656 Q45.2156,294.6406 46.5281,292.9844 Q47.8563,291.3281 50.3563,291.3281 Q51.0594,291.3281 51.7,291.4844 Q52.3563,291.6406 52.9188,291.9375 L52.9188,294.6563 Q52.2938,294.0781 51.7,293.8125 Q51.1063,293.5313 50.4813,293.5313 Q49.1375,293.5313 48.45,294.6094 Q47.7625,295.6719 47.7625,297.7656 Q47.7625,299.8594 48.45,300.9375 Q49.1375,302 50.4813,302 Q51.1063,302 51.7,301.7344 Q52.2938,301.4531 52.9188,300.875 L52.9188,303.5938 Z " fill="#000000"/><text fill="#000000" font-family="sans-serif" font-size="12" lengthAdjust="spacing" textLength="57" x="65.05" y="302.1074">Company</text><line style="stroke:#A80036;stroke-width:1.5;" x1="31" x2="129" y1="313.9531" y2="313.9531"/><ellipse cx="41" cy="324.9531" rx="3" ry="3" style="stroke:#038048;stroke-width:1.0;fill:none;"/><text fill="#000000" font-family="sans-serif" font-size="11" lengthAdjust="spacing" textLength="74" x="50" y="328.1636">name: String</text><line style="stroke:#A80036;stroke-width:1.5;" x1="31" x2="129" y1="334.7578" y2="334.7578"/><!--MD5=[63ed6a0a2dfd613875880437a5e2b06e]
class Wheel--><rect codeLine="40" fill="#FEFECE" filter="url(#fcw48kp9oh5nu)" height="60.8047" id="Wheel" style="stroke:#A80036;stroke-width:1.5;" width="110" x="186" y="148.4531"/><ellipse cx="219" cy="164.4531" fill="#ADD1B2" rx="11" ry="11" style="stroke:#A80036;stroke-width:1.0;"/><path d="M221.9688,170.0938 Q221.3906,170.3906 220.75,170.5313 Q220.1094,170.6875 219.4063,170.6875 Q216.9063,170.6875 215.5781,169.0469 Q214.2656,167.3906 214.2656,164.2656 Q214.2656,161.1406 215.5781,159.4844 Q216.9063,157.8281 219.4063,157.8281 Q220.1094,157.8281 220.75,157.9844 Q221.4063,158.1406 221.9688,158.4375 L221.9688,161.1563 Q221.3438,160.5781 220.75,160.3125 Q220.1563,160.0313 219.5313,160.0313 Q218.1875,160.0313 217.5,161.1094 Q216.8125,162.1719 216.8125,164.2656 Q216.8125,166.3594 217.5,167.4375 Q218.1875,168.5 219.5313,168.5 Q220.1563,168.5 220.75,168.2344 Q221.3438,167.9531 221.9688,167.375 L221.9688,170.0938 Z " fill="#000000"/><text fill="#000000" font-family="sans-serif" font-size="12" lengthAdjust="spacing" textLength="38" x="237" y="168.6074">Wheel</text><line style="stroke:#A80036;stroke-width:1.5;" x1="187" x2="295" y1="180.4531" y2="180.4531"/><rect fill="none" height="6" style="stroke:#C82930;stroke-width:1.0;" width="6" x="194" y="188.4531"/><text fill="#000000" font-family="sans-serif" font-size="11" lengthAdjust="spacing" textLength="84" x="206" y="194.6636">radius: Integer</text><line style="stroke:#A80036;stroke-width:1.5;" x1="187" x2="295" y1="201.2578" y2="201.2578"/><!--MD5=[3640288bb00e105a19a150bd568b9756]
class Seat--><rect codeLine="44" fill="#FEFECE" filter="url(#fcw48kp9oh5nu)" height="48" id="Seat" style="stroke:#A80036;stroke-width:1.5;" width="61" x="49.5" y="27.9531"/><ellipse cx="64.5" cy="43.9531" fill="#ADD1B2" rx="11" ry="11" style="stroke:#A80036;stroke-width:1.0;"/><path d="M67.4688,49.5938 Q66.8906,49.8906 66.25,50.0313 Q65.6094,50.1875 64.9063,50.1875 Q62.4063,50.1875 61.0781,48.5469 Q59.7656,46.8906 59.7656,43.7656 Q59.7656,40.6406 61.0781,38.9844 Q62.4063,37.3281 64.9063,37.3281 Q65.6094,37.3281 66.25,37.4844 Q66.9063,37.6406 67.4688,37.9375 L67.4688,40.6563 Q66.8438,40.0781 66.25,39.8125 Q65.6563,39.5313 65.0313,39.5313 Q63.6875,39.5313 63,40.6094 Q62.3125,41.6719 62.3125,43.7656 Q62.3125,45.8594 63,46.9375 Q63.6875,48 65.0313,48 Q65.6563,48 66.25,47.7344 Q66.8438,47.4531 67.4688,46.875 L67.4688,49.5938 Z " fill="#000000"/><text fill="#000000" font-family="sans-serif" font-size="12" lengthAdjust="spacing" textLength="29" x="78.5" y="48.1074">Seat</text><line style="stroke:#A80036;stroke-width:1.5;" x1="50.5" x2="109.5" y1="59.9531" y2="59.9531"/><line style="stroke:#A80036;stroke-width:1.5;" x1="50.5" x2="109.5" y1="67.9531" y2="67.9531"/><!--MD5=[2ea1030a1cbd423ae6287d5d7d5e8969]
link Car to Wheel--><path codeLine="52" d="M151.09,178.9531 C151.09,178.9531 172.77,178.9531 172.77,178.9531 " fill="none" id="Car-to-Wheel" style="stroke:#A80036;stroke-width:1.0;"/><polygon fill="#A80036" points="185.77,178.9531,179.77,174.9531,173.77,178.9531,179.77,182.9531,185.77,178.9531" style="stroke:#A80036;stroke-width:1.0;"/><text fill="#000000" font-family="sans-serif" font-size="13" lengthAdjust="spacing" textLength="8" x="158.8337" y="175.2321">1</text><text fill="#000000" font-family="sans-serif" font-size="13" lengthAdjust="spacing" textLength="8" x="170.1812" y="175.0801">4</text><!--MD5=[69eb02bb79ce966c34181bbd3b046ad2]
reverse link Seat to Car--><path codeLine="55" d="M80,89.1431 C80,89.1431 80,135.8331 80,135.8331 " fill="none" id="Seat-backto-Car" style="stroke:#A80036;stroke-width:1.0;"/><polygon fill="#A80036" points="80,76.1431,76,82.1431,80,88.1431,84,82.1431,80,76.1431" style="stroke:#A80036;stroke-width:1.0;"/><text fill="#000000" font-family="sans-serif" font-size="13" lengthAdjust="spacing" textLength="24" x="53.075" y="95.9506">2..4</text><text fill="#000000" font-family="sans-serif" font-size="13" lengthAdjust="spacing" textLength="8" x="71.3625" y="124.81">1</text><!--MD5=[cbc31051ed7013f831521cca16f8a988]
link Car to Company--><path codeLine="58" d="M80,222.2931 C80,222.2931 80,268.5731 80,268.5731 " fill="none" id="Car-to-Company" style="stroke:#A80036;stroke-width:1.0;"/><polygon fill="#FFFFFF" points="80,281.5731,84,275.5731,80,269.5731,76,275.5731,80,281.5731" style="stroke:#A80036;stroke-width:1.0;"/><text fill="#000000" font-family="sans-serif" font-size="13" lengthAdjust="spacing" textLength="23" x="55.1672" y="242.4402">1..*</text><text fill="#000000" font-family="sans-serif" font-size="13" lengthAdjust="spacing" textLength="8" x="71.175" y="270.758">1</text><!--MD5=[a7051c1490f37b8c45bcf1c35ffc740f]
@startuml
' Settings
' ============================

' use +,#,- instead of icons
'skinparam classAttributeIconSize 0

' horizontal distance in px
'skinparam nodesep 60 

' vertical distance in px
'skinparam ranksep 50

' use only straight lines (ortho/polyline)
skinparam linetype ortho

' title
title 1-1-1 UML Attributes



' Abstract Classes
' ============================




' Concrete Classes
' ============================
class Car {
    +color: String
    #license_plate: String
    -: Wheels[4]: Array
}

class Company {
    +name: String
}


class Wheel {
    -radius: Integer
}

class Seat {
}

' Relations
' ================================


' Composition
Wheel "4" *-left- "1" Car

' Composition
Seat "2..4" *-down- "1" Car

' Aggregation
Company "1" o-up- "1..*" Car 

@enduml

@startuml




skinparam linetype ortho

title 1-1-1 UML Attributes







class Car {
    +color: String
    #license_plate: String
    -: Wheels[4]: Array
}

class Company {
    +name: String
}


class Wheel {
    -radius: Integer
}

class Seat {
}



Wheel "4" *-left- "1" Car

Seat "2..4" *-down- "1" Car

Company "1" o-up- "1..*" Car 

@enduml

PlantUML version 1.2021.9(Sun Jul 25 12:13:56 CEST 2021)
(GPL source distribution)
Java Runtime: OpenJDK Runtime Environment
JVM: OpenJDK 64-Bit Server VM
Default Encoding: UTF-8
Language: en
Country: US
--></g></svg>